<svg xmlns="http://www.w3.org/2000/svg" viewBox="0 0 23.313 23.313">
  <defs>
    <style>
      .cls-1 {
        fill: #828282;
        opacity: 0.87;
      }
    </style>
  </defs>
  <path id="Arial" class="cls-1" d="M16.688-9.312l6.625,6.625-2,2L14.688-7.312V-8.375l-.375-.375A8.452,8.452,0,0,1,8.688-6.687,8.38,8.38,0,0,1,2.531-9.219,8.343,8.343,0,0,1,0-15.344a8.343,8.343,0,0,1,2.531-6.125A8.343,8.343,0,0,1,8.656-24a8.343,8.343,0,0,1,6.125,2.531,8.38,8.38,0,0,1,2.531,6.156A8.452,8.452,0,0,1,15.25-9.687l.375.375Zm-12.25-1.75a5.786,5.786,0,0,0,4.25,1.75,5.786,5.786,0,0,0,4.25-1.75,5.786,5.786,0,0,0,1.75-4.25,5.786,5.786,0,0,0-1.75-4.25,5.786,5.786,0,0,0-4.25-1.75,5.786,5.786,0,0,0-4.25,1.75,5.786,5.786,0,0,0-1.75,4.25A5.786,5.786,0,0,0,4.438-11.062Z" transform="translate(0 24)"/>
</svg>
