<svg width="48" height="48" fill="none" xmlns="http://www.w3.org/2000/svg"><mask id="a" style="mask-type:alpha" maskUnits="userSpaceOnUse" x="11" y="6" width="26" height="37"><path d="M11 6.111h25.848v36.85H11V6.111Z" fill="#fff"/></mask><g mask="url(#a)"><path fill-rule="evenodd" clip-rule="evenodd" d="M11.94 6.111a.922.922 0 0 0-.923.92L11 42.042c0 .508.413.92.923.92h23.988c.51 0 .923-.412.923-.92l.014-28.302-7.354-7.629H11.94Z" fill="url(#b)"/></g><mask id="c" style="mask-type:alpha" maskUnits="userSpaceOnUse" x="29" y="6" width="8" height="8"><path d="M29.412 6.055h7.384v7.656h-7.384V6.055Z" fill="#fff"/></mask><g mask="url(#c)"><path fill-rule="evenodd" clip-rule="evenodd" d="M30.335 13.711h6.46l-7.38-7.656-.004 6.735c0 .51.414.921.923.921" fill="#FEFEFE"/></g><mask id="d" style="mask-type:alpha" maskUnits="userSpaceOnUse" x="29" y="6" width="8" height="8"><path d="M29.412 6.055h7.384v7.656h-7.384V6.055Z" fill="#fff"/></mask><g mask="url(#d)"><path d="M30.335 13.711h6.46l-7.38-7.656-.004 6.735c0 .51.414.921.923.921" stroke="url(#e)"/></g><mask id="f" style="mask-type:alpha" maskUnits="userSpaceOnUse" x="11" y="35" width="26" height="8"><path d="M11 35h26v8H11v-8Z" fill="#fff"/></mask><g mask="url(#f)"><path d="M11 35h26v8H11v-8Z" fill="#fff"/><path fill-rule="evenodd" clip-rule="evenodd" d="m62.861 3.563-.312-.317L63 3l-.139.563ZM34.268 47.398 14.894 27.716l.97-.493L34.269 45.92l3.847 3.908 9.115 9.26-.346 1.162L36.66 49.827l-2.392-2.43v.001Zm0-3.17L16.974 26.66l.97-.493L34.268 42.75l6.967 7.077 6.689 6.795-.347 1.162-7.798-7.957-5.51-5.598-.001-.001Zm0-3.168-15.25-15.456.971-.528L34.27 39.58l10.085 10.246 4.263 4.33-.347 1.163-5.372-5.493-8.63-8.767-.001.001Zm0-3.169-13.17-13.379.97-.493 12.2 12.394 13.205 13.414 1.837 1.866-.347 1.162-2.946-3.028-11.749-11.936Zm0-3.168-11.09-11.267.97-.493 10.12 10.281 15.735 15.984-.173.599-.173.563-.52-.563-14.869-15.104ZM53.157 8.07l6.55 6.654-.311 1.162-7.21-7.323.971-.493Zm2.08-1.056L60.4 12.26l-.312 1.162-5.858-5.915 1.005-.493h.002Zm2.044-1.092 3.813 3.873-.312 1.162-4.471-4.507.97-.528Zm2.08-1.056 2.426 2.464-.312 1.162-3.085-3.133.97-.493h.001Zm2.08-1.056.9.915.14.14-.14.53-.173.633-1.698-1.725.97-.493h.001ZM34.267 18.879l-.727-.74.727-.387.243-.105 3.604 3.661L53.47 36.906l-.312 1.161L36.66 21.308l-2.392-2.43-.001.001Zm1.317-1.796 1.005-.493 4.645 4.718 12.928 13.133-.312 1.162-14.07-14.295-4.194-4.225h-.002Zm2.08-1.056.97-.528 5.719 5.81 10.502 10.666-.312 1.162-11.645-11.83-5.233-5.281-.001.001Zm2.08-1.091.97-.493 6.758 6.865 8.075 8.204-.311 1.162-9.22-9.366-6.273-6.372h.001Zm2.079-1.057.97-.493 7.798 7.922 5.65 5.74-.312 1.161-6.793-6.9-7.313-7.43Zm2.08-1.056.97-.493 8.838 8.978 3.223 3.275-.312 1.161-4.367-4.436-8.353-8.485h.001Zm2.044-1.056 1.005-.493 9.878 10.034.797.81-.312 1.162-1.94-1.972-9.428-9.541Zm3.05-1.585 9.323 9.472-.312 1.161-9.981-10.104.97-.529Zm2.08-1.056 7.936 8.063-.312 1.162-8.595-8.732.97-.493h.001ZM17.944 49.827 6.195 37.891 2.452 34.09l.97-.493 2.773 2.817L19.4 49.827l14.868 15.105 7.764 7.886c-.728-.211-1.421-.457-2.149-.669l-5.615-5.704-16.324-16.618Zm3.12 0L6.195 34.723l-1.663-1.69.97-.493.693.704L22.52 49.827l11.75 11.936 9.496 9.647-.347 1.162-9.15-9.33-13.204-13.415h-.001Zm3.119 0L6.61 31.977l.97-.494 18.057 18.344 8.63 8.767 10.19 10.351-.347 1.162-9.843-10.034-10.085-10.246h.001Zm3.12 0L8.655 30.92l1.005-.493 19.097 19.4 5.51 5.598L45.15 66.481l-.347 1.162-10.536-10.739-6.966-7.077h.002Zm6.238 0L12.815 28.773l.97-.493 20.483 20.808.728.74 11.541 11.724-.346 1.161-11.923-12.146-.727-.74Zm-3.12 0L10.736 29.864l.97-.528 20.171 20.491 2.391 2.43 11.576 11.76-.346 1.161-11.23-11.443-3.847-3.908ZM25.257 22.4l.97-.493 8.041 8.168 16.428 16.69-.346 1.16-16.082-16.37-9.01-9.154-.001-.001Zm2.045-1.056.07-.036.935-.457.45.457 5.511 5.598L51.39 44.3l-.346 1.162-16.776-17.077-6.966-7.041Zm6.239-.036-2.08-2.112.97-.493 1.837 1.866.728.74 17.78 18.061-.347 1.162-18.16-18.484-.728-.74Zm-3.12 0-1.04-1.02.97-.529 1.526 1.55 2.391 2.429 17.815 18.097-.347 1.162-17.468-17.78-3.847-3.909Zm-20.379 28.52 15.042 15.28c-1.525-.951-2.98-1.972-4.436-3.028L8.587 49.827l-2.392-2.43-1.629-1.654a66.712 66.712 0 0 1-2.946-4.507l4.575 4.683 3.847 3.908v.001ZM6.195 41.06.373 35.145l.97-.493 4.852 4.93 10.086 10.244L34.268 68.1l3.05 3.099a50.17 50.17 0 0 1-2.426-.986l-.624-.634-19.443-19.752-8.63-8.767Zm-6.897-5.316 6.897 7.006 6.967 7.077L31.877 68.84a77.441 77.441 0 0 1-2.946-1.514l-17.26-17.534-5.51-5.598-6.793-6.901c-.243-.422-.451-.88-.659-1.303l.59-.246h-.001Z" fill="url(#g)"/></g><path fill-rule="evenodd" clip-rule="evenodd" d="M16.5 21a1.5 1.5 0 0 1 1.5 1.5V32h-3v-9.5a1.5 1.5 0 0 1 1.5-1.5Zm5-5a1.5 1.5 0 0 1 1.5 1.5V32h-3V17.5a1.5 1.5 0 0 1 1.5-1.5Zm5 11a1.5 1.5 0 0 1 1.5 1.5V32h-3v-3.5a1.5 1.5 0 0 1 1.5-1.5Z" fill="#fff"/><defs><linearGradient id="b" x1="23.924" y1="6.111" x2="23.924" y2="42.962" gradientUnits="userSpaceOnUse"><stop stop-color="#51C8EC"/><stop offset="1" stop-color="#4195DE"/></linearGradient><linearGradient id="e" x1="33.103" y1="6.055" x2="33.103" y2="13.711" gradientUnits="userSpaceOnUse"><stop stop-color="#51C8EC"/><stop offset="1" stop-color="#4195DE"/></linearGradient><linearGradient id="g" x1="30.855" y1="3" x2="30.855" y2="72.818" gradientUnits="userSpaceOnUse"><stop stop-color="#51C8EC"/><stop offset="1" stop-color="#4195DE"/></linearGradient></defs></svg>