<svg width="48" height="48" fill="none" xmlns="http://www.w3.org/2000/svg"><mask id="a" style="mask-type:alpha" maskUnits="userSpaceOnUse" x="10" y="16" width="28" height="27"><path d="M10 16.76h27.957v26.057H10V16.76Z" fill="#fff"/></mask><g mask="url(#a)"><path fill-rule="evenodd" clip-rule="evenodd" d="M30.016 16.78a9.397 9.397 0 0 1-6.004 2.148 9.393 9.393 0 0 1-6.027-2.168C13.263 18.956 10 23.669 10 29.127c0 7.561 6.257 13.69 13.978 13.69 7.72 0 13.979-6.129 13.979-13.687 0-5.444-3.245-10.144-7.941-12.35Z" fill="url(#b)"/></g><path fill-rule="evenodd" clip-rule="evenodd" d="M31.643 23.25c-.927 0-1.68-.721-1.68-1.613v-7.649c0-3.176-2.673-5.76-5.96-5.76s-5.96 2.584-5.96 5.76v7.649c0 .892-.753 1.614-1.68 1.614-.927 0-1.68-.722-1.68-1.614v-7.649c0-4.954 4.18-8.988 9.322-8.988 5.138 0 9.317 4.033 9.317 8.988v7.649c0 .892-.75 1.614-1.678 1.614" fill="url(#c)"/><mask id="d" style="mask-type:alpha" maskUnits="userSpaceOnUse" x="13" y="31" width="22" height="9"><path d="M23.979 39.558c5.208 0 9.537-3.662 10.462-8.496H13.516c.925 4.834 5.256 8.496 10.463 8.496Z" fill="#fff"/></mask><g mask="url(#d)"><path d="M23.979 39.558c5.208 0 9.537-3.662 10.462-8.496H13.516c.925 4.834 5.256 8.496 10.463 8.496Z" fill="#E3E5E6"/><path fill-rule="evenodd" clip-rule="evenodd" d="m-3.88-7.49.272-.287L-4-8l.12.51Zm24.87 39.713 16.85-17.83-.844-.447-16.007 16.937-3.346 3.541-7.927 8.39.301 1.052 8.892-9.442 2.08-2.2.001-.001Zm0-2.87 15.04-15.919-.844-.446L20.99 28.013l-6.06 6.411-5.817 6.156.301 1.053 6.783-7.209 4.792-5.072.001.001Zm0-2.871 13.263-14.004-.844-.478-12.42 13.142-8.772 9.282-3.707 3.924.3 1.052 4.673-4.976 7.507-7.942Zm0-2.871L32.443 11.49l-.844-.447L20.99 22.271 9.503 34.424l-1.597 1.69.301 1.053 2.563-2.743 10.219-10.813h.001Zm0-2.871 9.645-10.207-.844-.447L20.99 19.4 7.304 33.882l.15.542.151.51.453-.51L20.989 20.74h.001ZM4.56-3.407l-5.696 6.029.271 1.053 6.27-6.635-.844-.447H4.56Zm-1.808-.957L-1.739.389l.271 1.053 5.094-5.36-.874-.446ZM.974-5.353l-3.316 3.51.271 1.052 3.889-4.083-.844-.479ZM-.835-6.31l-2.11 2.233.271 1.053L.009-5.863l-.844-.447Zm-1.808-.957-.784.83-.12.127.12.479.15.574 1.478-1.563-.844-.447ZM20.989 6.386l.633-.67-.633-.35-.21-.097-3.136 3.318L4.29 22.717l.27 1.053L18.91 8.587l2.08-2.201h-.001Zm-1.145-1.627-.874-.447-4.04 4.275L3.687 20.485l.271 1.052 12.238-12.95 3.648-3.828Zm-1.809-.957-.844-.478-4.974 5.263-9.133 9.665.271 1.053L13.483 8.587l4.552-4.785Zm-1.808-.989-.844-.446-5.879 6.22-7.023 7.432.271 1.053 8.019-8.485 5.456-5.774Zm-1.81-.957-.843-.446-6.782 7.177-4.914 5.2.271 1.052 5.909-6.252 6.36-6.73-.001-.001ZM12.61.9l-.844-.446L4.08 8.588l-2.804 2.966.271 1.053 3.799-4.02L12.609.9h.001Zm-1.778-.956-.874-.447-8.591 9.09-.694.734.272 1.053 1.688-1.786 8.199-8.644ZM8.179-1.492.07 7.088l.272 1.053 8.681-9.154-.844-.479ZM6.37-2.449-.532 4.856l.27 1.052 7.476-7.91-.844-.447Zm28.817 36.873 10.219-10.813 3.255-3.445-.844-.447-2.411 2.552L33.92 34.424 20.989 48.108l-6.752 7.145c.633-.19 1.236-.414 1.869-.605l4.883-5.168 14.198-15.056Zm-2.713 0L45.406 20.74l1.447-1.531-.844-.447-.603.638-14.198 15.024-10.219 10.814-8.26 8.74.302 1.052 7.958-8.453 11.485-12.153Zm-2.713 0 15.283-16.172-.844-.447-15.705 16.62-7.506 7.942-8.862 9.378.301 1.052 8.561-9.09 8.772-9.283Zm-2.713 0 16.218-17.129-.875-.447-16.609 17.576-4.792 5.072-9.465 10.016.302 1.053 9.163-9.73 6.06-6.41-.002-.001Zm-5.426 0L39.648 15.35l-.844-.446-17.814 18.85-.633.67-10.038 10.622.302 1.053L20.99 35.094l.632-.67Zm2.713 0 17.122-18.086-.844-.478-17.544 18.564-2.079 2.201L10.921 47.28l.302 1.053 9.766-10.368 3.346-3.54v-.001Zm4.492-24.848-.844-.447-6.994 7.4L6.701 31.65l.302 1.053 13.986-14.834 7.838-8.293Zm-1.779-.957-.06-.032-.814-.415-.392.415-4.793 5.072L6.1 29.416l.3 1.053 14.59-15.47 6.06-6.38h-.002Zm-5.426-.032 1.809-1.914-.844-.447-1.598 1.691-.633.67L4.892 24.95l.302 1.052L20.989 9.257l.633-.67Zm2.713 0 .905-.925-.844-.479-1.327 1.404-2.08 2.2L5.495 27.184l.302 1.053 15.192-16.109 3.346-3.541ZM42.06 34.424 28.977 48.268c1.327-.861 2.593-1.786 3.859-2.743l10.49-11.1 2.08-2.202 1.417-1.499a60.76 60.76 0 0 0 2.562-4.083l-3.98 4.243-3.345 3.54Zm3.346-7.942 5.064-5.36-.844-.446-4.22 4.466-8.772 9.282L20.989 50.98l-2.652 2.807a42.638 42.638 0 0 0 2.11-.893l.542-.574L37.9 34.424l7.506-7.942Zm5.998-4.817-5.998 6.348-6.06 6.411L23.07 51.65a66.39 66.39 0 0 0 2.562-1.372l15.011-15.886 4.793-5.071 5.908-6.252c.211-.383.392-.798.573-1.18l-.513-.224Z" fill="url(#e)"/></g><path fill-rule="evenodd" clip-rule="evenodd" d="M24 25a3 3 0 1 1 0 6.001A3 3 0 0 1 24 25Zm-7.628-3c.736 0 1.333.584 1.333 1.305s-.596 1.305-1.332 1.305c-.736 0-1.333-.584-1.333-1.304v-.001c0-.72.597-1.305 1.332-1.305Z" fill="#fff"/><path fill-rule="evenodd" clip-rule="evenodd" d="M23.979 35c-.692-.002-1.252-.66-1.253-1.472v-3.056c0-.809.563-1.472 1.253-1.472s1.253.663 1.253 1.472v3.056c0 .81-.564 1.472-1.253 1.472Z" fill="#fff"/><defs><linearGradient id="b" x1="10" y1="29.788" x2="37.957" y2="29.788" gradientUnits="userSpaceOnUse"><stop stop-color="#53C8ED"/><stop offset="1" stop-color="#3BA510"/></linearGradient><linearGradient id="c" x1="14.683" y1="14.126" x2="33.322" y2="14.126" gradientUnits="userSpaceOnUse"><stop stop-color="#53C8ED"/><stop offset="1" stop-color="#3BA510"/></linearGradient><linearGradient id="e" x1="23.959" y1="55.253" x2="23.959" y2="-8" gradientUnits="userSpaceOnUse"><stop stop-color="#3BA510"/><stop offset="1" stop-color="#53C8ED"/></linearGradient></defs></svg>