<svg width="48" height="48" fill="none" xmlns="http://www.w3.org/2000/svg"><path d="M8.126 40.427c3.878 3.878 14.358-.313 23.407-9.363 9.05-9.049 13.241-19.529 9.363-23.407S26.538 7.97 17.49 17.02c-9.05 9.049-13.241 19.529-9.363 23.407Z" stroke="url(#a)" stroke-width="1.655" stroke-linecap="round"/><path d="M40.896 40.427c-3.879 3.879-14.358-.313-23.408-9.363C8.44 22.015 4.248 11.535 8.126 7.657s14.358.314 23.407 9.363c9.05 9.05 13.241 19.529 9.363 23.407Z" stroke="url(#b)" stroke-width="1.655" stroke-linecap="round"/><mask id="c" style="mask-type:alpha" maskUnits="userSpaceOnUse" x="18" y="18" width="13" height="12"><path d="M30.057 24.072a5.793 5.793 0 1 0-11.586 0 5.793 5.793 0 0 0 11.586 0Z" fill="#fff"/></mask><g mask="url(#c)"><path d="M30.057 24.072a5.793 5.793 0 1 0-11.586 0 5.793 5.793 0 0 0 11.586 0Z" fill="#fff"/><path fill-rule="evenodd" clip-rule="evenodd" d="m-2.428-9.422.273-.286-.395-.222.122.508ZM22.6 30.066l16.96-17.73-.85-.444L22.6 28.734l-3.367 3.52-7.979 8.343.303 1.046 8.95-9.388 2.093-2.189Zm0-2.854 15.138-15.828-.849-.444L22.6 25.88l-6.098 6.375-5.855 6.121.304 1.047 6.826-7.168 4.823-5.043Zm0-2.855 13.348-13.924-.849-.476L22.6 23.025l-8.828 9.23-3.732 3.901.304 1.047 4.702-4.948 7.554-7.898Zm0-2.855L34.128 9.45l-.85-.444L22.6 20.17 11.042 32.255l-1.608 1.68.303 1.048 2.579-2.728L22.6 21.502Zm0-2.854 9.708-10.15-.85-.444-8.858 9.262-13.773 14.4.152.54.151.506.455-.507L22.6 18.648ZM6.066-5.362.332.632.605 1.68l6.31-6.598-.849-.444v.001Zm-1.82-.952-4.52 4.726.273 1.046L5.126-5.87l-.88-.444Zm-1.79-.983-3.337 3.49.273 1.045 3.914-4.06-.85-.475Zm-1.82-.952-2.124 2.22.273 1.047 2.7-2.823-.85-.444h.001Zm-1.82-.952-.79.825-.12.127.12.476.152.57 1.487-1.553-.85-.445h.001ZM22.6 4.375l.637-.666-.637-.35-.212-.094-3.155 3.298-13.44 14.051.273 1.047 14.44-15.098L22.6 4.375Zm-1.153-1.618-.88-.444-4.065 4.25L5.186 18.394l.273 1.047L17.776 6.563l3.671-3.806Zm-1.82-.95-.85-.477-5.005 5.233-9.192 9.61.273 1.048L15.046 6.563l4.58-4.757h.001Zm-1.82-.985-.85-.444-5.915 6.185-7.07 7.39L4.246 15l8.07-8.437 5.49-5.74h.001Zm-1.82-.95-.85-.445-6.826 7.136-4.945 5.17.273 1.047 5.946-6.217 6.402-6.692Zm-1.82-.953-.85-.444-7.736 8.088-2.822 2.95.273 1.047 3.823-3.997 7.311-7.644h.001Zm-1.79-.95-.88-.445-8.647 9.04-.697.73.273 1.046 1.699-1.777 8.251-8.595h.001ZM9.707-3.46 1.546 5.073l.273 1.046 8.737-9.103-.85-.476h.001Zm-1.82-.95L.939 2.851 1.212 3.9l7.524-7.866-.85-.444h.001Zm29.002 36.665 10.284-10.753 3.277-3.424-.85-.444-2.427 2.537-11.558 12.085L22.6 45.862l-6.795 7.105c.637-.19 1.243-.413 1.88-.603l4.915-5.138 14.29-14.97h-.001Zm-2.73 0 13.014-13.607 1.457-1.523-.85-.444-.607.635-14.289 14.94L22.6 43.006l-8.312 8.691.303 1.047 8.01-8.406 11.558-12.084Zm-2.73 0 15.38-16.08-.85-.445-15.805 16.525-7.554 7.898-8.92 9.325.304 1.046 8.616-9.04 8.828-9.23.001.001Zm-2.731 0 16.321-17.033-.879-.444-16.715 17.477-4.825 5.043-9.526 9.96.304 1.046L22.6 38.63l6.098-6.375Zm-5.46 0 18.139-18.967-.849-.444L22.6 31.588l-.637.666-10.102 10.562.303 1.047L22.6 32.921l.637-.666h.001Zm2.73 0 17.231-17.984-.85-.476-17.656 18.46-2.093 2.188-10.133 10.595.304 1.047 9.83-10.308 3.367-3.52v-.002Zm4.52-24.708-.85-.444-7.038 7.358L8.22 29.495l.303 1.047L22.6 15.793l7.888-8.246Zm-1.79-.952-.06-.032-.82-.412-.394.412-4.824 5.045L7.613 27.275l.304 1.047L22.6 12.938l6.098-6.344v.001Zm-5.46-.032 1.82-1.903-.85-.444L22.6 5.898l-.637.666L6.4 22.835l.303 1.046L22.6 7.23l.637-.666h.001Zm2.73 0 .91-.92-.85-.475-1.335 1.395-2.093 2.19L7.007 25.054l.303 1.047L22.6 10.084l3.368-3.52Zm17.838 25.692L30.639 46.02c1.335-.856 2.61-1.776 3.884-2.727L45.08 32.255l2.093-2.189 1.426-1.49c.91-1.3 1.76-2.665 2.579-4.06l-4.005 4.218-3.367 3.52v.001Zm3.367-7.898 5.097-5.328-.85-.445-4.247 4.44-8.828 9.23L22.6 48.718l-2.67 2.79c.728-.285 1.426-.57 2.124-.887l.546-.57 17.02-17.795 7.553-7.898Zm6.037-4.79-6.037 6.313-6.097 6.375-16.383 17.128c.88-.444 1.73-.889 2.579-1.364L42.38 32.223l4.824-5.043 5.946-6.217c.212-.38.394-.793.576-1.173l-.516-.222Z" fill="url(#d)"/><path fill-rule="evenodd" clip-rule="evenodd" d="M23.793 29.794c3.2 0 5.793-2.593 5.793-5.793-5.805 0-5.793.006-11.586 0 0 3.2 2.594 5.793 5.793 5.793Z" fill="url(#e)"/></g><defs><linearGradient id="a" x1="40.896" y1="7.657" x2="8.126" y2="40.427" gradientUnits="userSpaceOnUse"><stop stop-color="#D12F12"/><stop offset="1" stop-color="#E58A01"/></linearGradient><linearGradient id="b" x1="8.126" y1="7.657" x2="40.896" y2="40.427" gradientUnits="userSpaceOnUse"><stop stop-color="#D12F12"/><stop offset="1" stop-color="#E58A01"/></linearGradient><linearGradient id="d" x1="25.588" y1="-9.93" x2="25.588" y2="52.967" gradientUnits="userSpaceOnUse"><stop stop-color="#D12F12"/><stop offset="1" stop-color="#E58A01"/></linearGradient><linearGradient id="e" x1="23.793" y1="24.001" x2="23.793" y2="29.794" gradientUnits="userSpaceOnUse"><stop stop-color="#D12F12"/><stop offset="1" stop-color="#E58A01"/></linearGradient></defs></svg>