<svg width="48" height="48" fill="none" xmlns="http://www.w3.org/2000/svg"><path fill-rule="evenodd" clip-rule="evenodd" d="M31.188 25.797c-.959 0-1.737-.8-1.738-1.786-.007-5.405-5.713-8.454-5.77-8.484-.31-.16-7.67-4.043-7.68-11.672-.001-.988.776-1.79 1.735-1.79h.003c.958 0 1.736.798 1.737 1.785.007 5.405 5.713 8.454 5.77 8.484.31.16 7.67 4.044 7.68 11.672.001.988-.775 1.79-1.735 1.79h-.002Z" fill="url(#a)"/><path fill-rule="evenodd" clip-rule="evenodd" d="M29.475 44.202c-.006-5.404-5.712-8.453-5.77-8.483-.309-.16-7.67-4.044-7.68-11.673-.01-7.628 7.342-11.532 7.655-11.694.053-.028 5.751-3.092 5.745-8.497-.002-.988.775-1.79 1.735-1.79h.002c.959 0 1.736.798 1.738 1.785.01 7.63-7.342 11.533-7.655 11.695-.053.028-5.751 3.092-5.744 8.497.006 5.405 5.712 8.453 5.77 8.484.309.159 7.67 4.043 7.68 11.672 0 .988-.776 1.79-1.736 1.79s-1.738-.8-1.74-1.786Z" fill="url(#b)"/><path fill-rule="evenodd" clip-rule="evenodd" d="M29.849 22.133h-10.5c-.762 0-1.38-.655-1.38-1.463s.618-1.464 1.38-1.464h10.5c.762 0 1.38.656 1.38 1.464 0 .808-.618 1.463-1.38 1.463ZM19.35 8.682c-.763 0-1.381-.656-1.381-1.464 0-.808.618-1.463 1.38-1.463h10.5c.762 0 1.38.655 1.38 1.463s-.618 1.464-1.38 1.464h-10.5.001Z" fill="url(#c)"/><mask id="d" style="mask-type:alpha" maskUnits="userSpaceOnUse" x="16" y="22" width="17" height="24"><path d="M16.05 22.22h16.875v23.769H16.051L16.05 22.22Z" fill="#fff"/></mask><g mask="url(#d)"><path fill-rule="evenodd" clip-rule="evenodd" d="M17.788 45.988c-.958 0-1.736-.8-1.737-1.786-.01-7.628 7.342-11.532 7.655-11.694.053-.028 5.75-3.092 5.744-8.497-.001-.988.776-1.79 1.735-1.79h.003c.958 0 1.736.799 1.737 1.785.01 7.63-7.342 11.533-7.655 11.695-.053.028-5.75 3.092-5.744 8.497.001.988-.776 1.79-1.735 1.79h-.003Z" fill="url(#e)"/></g><path fill-rule="evenodd" clip-rule="evenodd" d="M29.849 42.31h-10.5c-.762 0-1.38-.655-1.38-1.463s.618-1.463 1.38-1.463h10.5c.762 0 1.38.655 1.38 1.463s-.618 1.463-1.38 1.463Zm.096-13.451H19.253c-.71 0-1.284-.655-1.284-1.463 0-.81.575-1.464 1.284-1.464h10.692c.71 0 1.284.655 1.284 1.464 0 .808-.575 1.463-1.284 1.463Z" fill="url(#f)"/><defs><linearGradient id="a" x1="24.462" y1="2.065" x2="24.462" y2="25.797" gradientUnits="userSpaceOnUse"><stop stop-color="#FFBA32"/><stop offset="1" stop-color="#E58A01"/></linearGradient><linearGradient id="b" x1="24.488" y1="45.988" x2="24.488" y2="2.065" gradientUnits="userSpaceOnUse"><stop stop-color="#FFBA33"/><stop offset="1" stop-color="#F9D96D"/></linearGradient><linearGradient id="c" x1="24.599" y1="22.133" x2="24.599" y2="5.755" gradientUnits="userSpaceOnUse"><stop stop-color="#FFBA33"/><stop offset="1" stop-color="#F9D96D"/></linearGradient><linearGradient id="e" x1="24.488" y1="22.221" x2="24.488" y2="45.988" gradientUnits="userSpaceOnUse"><stop stop-color="#FFBA32"/><stop offset="1" stop-color="#E58A01"/></linearGradient><linearGradient id="f" x1="24.599" y1="25.932" x2="24.599" y2="42.31" gradientUnits="userSpaceOnUse"><stop stop-color="#FFBA32"/><stop offset="1" stop-color="#E58A01"/></linearGradient></defs></svg>